<?xml version="1.0" encoding="UTF-8"?>
<svg id="Layer_1" data-name="Layer 1" xmlns="http://www.w3.org/2000/svg" viewBox="0 0 500 500" >
  <defs>
    <style>
      .cls-1, .cls-2, .cls-3, .cls-4 {
        stroke-width: 0px;
      }

      .cls-1, .cls-4 {
        fill: #eb1d27;
      }

      .cls-2 {
        fill: #fff;
      }

      .cls-3 {
        fill: #1f6d42;
      }

      .cls-4 {
        opacity: .3;
      }
    </style>
  </defs>
  <circle shape-rendering="geometricPrecision" class="cls-2" cx="250" cy="250" r="225.61"/>
  <path shape-rendering="geometricPrecision" class="cls-3" d="m250,0C111.93,0,0,111.93,0,250s111.93,250,250,250,250-111.93,250-250S388.07,0,250,0Zm159.53,409.53c-11.19,11.19-23.35,21.04-36.28,29.51l-33.41-57.85c-3.37-5.83-10.83-7.83-16.66-4.46-5.83,3.37-7.83,10.83-4.46,16.66l33.43,57.89c-27.72,14.1-58.21,22.32-89.93,24v-66.74c0-6.73-5.47-12.2-12.2-12.19-6.74,0-12.19,5.46-12.19,12.2v66.74c-31.71-1.68-62.21-9.88-89.93-23.98l33.42-57.9c3.37-5.83,1.37-13.29-4.47-16.66-5.83-3.36-13.29-1.37-16.66,4.47l-33.39,57.86c-12.95-8.48-25.12-18.34-36.32-29.54s-21.04-23.34-29.5-36.27l57.85-33.41c5.83-3.37,7.83-10.83,4.46-16.66-3.37-5.83-10.83-7.83-16.66-4.46l-57.89,33.43c-14.1-27.72-22.32-58.21-24-89.93h66.74c6.74-.01,12.19-5.47,12.19-12.21,0-6.74-5.46-12.19-12.2-12.19H24.72c1.67-31.71,9.88-62.2,23.98-89.93l57.9,33.41c1.92,1.11,4.02,1.63,6.08,1.63,4.22,0,8.32-2.19,10.57-6.1,3.37-5.83,1.37-13.29-4.47-16.66l-57.86-33.39c8.48-12.95,18.34-25.13,29.54-36.33,11.18-11.18,23.34-21.03,36.26-29.5l33.41,57.85c2.26,3.91,6.36,6.1,10.57,6.1,2.07,0,4.17-.53,6.09-1.64,5.83-3.37,7.83-10.83,4.46-16.66l-33.43-57.89c27.73-14.11,58.24-22.33,89.97-24.01v66.74c0,6.74,5.46,12.2,12.2,12.2s12.19-5.46,12.19-12.2V24.72c31.72,1.68,62.21,9.89,89.93,23.99l-33.42,57.89c-3.37,5.83-1.37,13.29,4.46,16.66,1.92,1.11,4.02,1.64,6.09,1.64,4.21,0,8.32-2.19,10.57-6.1l33.4-57.85c12.94,8.47,25.11,18.33,36.3,29.52,11.19,11.19,21.05,23.36,29.52,36.29l-57.85,33.4c-5.83,3.37-7.83,10.83-4.46,16.66,2.26,3.91,6.36,6.1,10.57,6.1,2.07,0,4.17-.53,6.09-1.64l57.89-33.43c14.1,27.72,22.32,58.22,24,89.93h-66.74c-6.73,0-12.19,5.46-12.19,12.2s5.46,12.2,12.2,12.2h66.74c-1.68,31.71-9.89,62.21-23.99,89.93l-57.89-33.42c-5.84-3.37-13.29-1.37-16.66,4.46-3.37,5.83-1.37,13.29,4.46,16.66l57.85,33.4c-8.47,12.94-18.33,25.12-29.53,36.31Z"/>
  <path shape-rendering="geometricPrecision" class="cls-4" d="m250,139.02c-61.29,0-110.98,49.69-110.98,110.98h110.98l.02,110.98c61.28,0,110.96-49.69,110.96-110.98s-49.69-110.98-110.98-110.98Z"/>
  <path shape-rendering="geometricPrecision" class="cls-4" d="m250,178.05c-39.74,0-71.95,32.21-71.95,71.95h71.95v71.95c39.74,0,71.95-32.22,71.95-71.95s-32.21-71.95-71.95-71.95Z"/>
  <g>
    <path shape-rendering="geometricPrecision" class="cls-1" d="m250,360.98c-6.74,0-12.2-5.46-12.2-12.2v-98.78c0-6.74,5.46-12.2,12.2-12.2s12.2,5.46,12.2,12.2v98.78c0,6.73-5.46,12.2-12.2,12.2Z"/>
    <path shape-rendering="geometricPrecision" class="cls-1" d="m250,262.2h-98.78c-6.74,0-12.2-5.46-12.2-12.2s5.46-12.2,12.2-12.2h98.78c6.73,0,12.2,5.46,12.2,12.2s-5.46,12.2-12.2,12.2Z"/>
  </g>
</svg>