<?xml version="1.0" encoding="UTF-8"?>
<svg id="Layer_2" data-name="Layer 2" xmlns="http://www.w3.org/2000/svg" viewBox="0 0 500 500">
  <defs>
    <style>
      .cls-1, .cls-2, .cls-3, .cls-4 {
        stroke-width: 0px;
      }

      .cls-1, .cls-4 {
        fill: #eb1d27;
      }

      .cls-2 {
        fill: #fff;
      }

      .cls-3 {
        fill: #1f6d42;
      }

      .cls-4 {
        isolation: isolate;
        opacity: .3;
      }
    </style>
  </defs>
  <g id="Layer_1-2" data-name="Layer 1">
    <circle class="cls-2" cx="250" cy="250" r="225.6"/>
    <path class="cls-3" d="m250,0C111.9,0,0,111.9,0,250s111.9,250,250,250,250-111.9,250-250S388.1,0,250,0Zm159.5,409.6c-11.2,11.2-23.3,21-36.3,29.5l-33.4-57.9c-3.4-5.8-10.8-7.8-16.7-4.5-5.8,3.4-7.8,10.8-4.5,16.7l33.4,57.9c-27.7,14.1-58.2,22.3-89.9,24v-66.7c0-6.7-5.5-12.2-12.2-12.2s-12.2,5.5-12.2,12.2v66.7c-31.7-1.7-62.2-9.9-89.9-24l33.4-57.9c3.4-5.8,1.4-13.3-4.5-16.7-5.8-3.4-13.3-1.4-16.7,4.5l-33.4,57.9c-13-8.5-25.1-18.3-36.3-29.5s-21-23.3-29.5-36.3l57.8-33.4c5.8-3.4,7.8-10.8,4.5-16.7-3.4-5.8-10.8-7.8-16.7-4.5l-57.9,33.4c-14.1-27.7-22.3-58.2-24-89.9h66.7c6.7,0,12.2-5.5,12.2-12.2s-5.5-12.2-12.2-12.2H24.4c1.7-31.7,9.9-62.2,24-89.9l57.9,33.4c1.9,1.1,4,1.6,6.1,1.6,4.2,0,8.3-2.2,10.6-6.1,3.4-5.8,1.4-13.3-4.5-16.7l-57.9-33.4c8.5-13,18.3-25.1,29.5-36.3s23.3-21,36.3-29.5l33.4,57.8c2.3,3.9,6.4,6.1,10.6,6.1,2.1,0,4.2-.5,6.1-1.6,5.8-3.4,7.8-10.8,4.5-16.7l-33.4-57.9c27.7-14.1,58.2-22.3,90-24v66.7c0,6.7,5.5,12.2,12.2,12.2s12.2-5.5,12.2-12.2V24.6c31.7,1.7,62.2,9.9,89.9,24l-33.4,57.9c-3.4,5.8-1.4,13.3,4.5,16.7,1.9,1.1,4,1.6,6.1,1.6,4.2,0,8.3-2.2,10.6-6.1l33.4-57.8c12.9,8.5,25.1,18.3,36.3,29.5s21,23.4,29.5,36.3l-57.9,33.4c-5.8,3.4-7.8,10.8-4.5,16.7,2.3,3.9,6.4,6.1,10.6,6.1,2.1,0,4.2-.5,6.1-1.6l57.9-33.4c14.1,27.7,22.3,58.2,24,89.9h-66.7c-6.7,0-12.2,5.5-12.2,12.2s5.5,12.2,12.2,12.2h66.7c-1.7,31.7-9.9,62.2-24,89.9l-57.9-33.4c-5.8-3.4-13.3-1.4-16.7,4.5s-1.4,13.3,4.5,16.7l57.8,33.4c-8.2,12.9-18.1,25.1-29.3,36.3h0Z"/>
    <path class="cls-4" d="m360.67,250.1c0-61.12-49.55-110.67-110.67-110.67s-110.67,49.55-110.67,110.67h98.44s0-.07,0-.1h-59.67c0-39.7,32.2-71.9,71.9-71.9s72,32.1,72,71.9c0,22.55-10.38,42.65-26.59,55.85l13.66,24.25c2.88,5.1,1.64,11.47-2.62,15.19,32.45-19.29,54.21-54.7,54.21-95.19Z"/>
    <path class="cls-4" d="m243.96,239.38c5.84-3.29,13.33-1.2,16.62,4.64l34.83,61.83c16.21-13.2,26.59-33.3,26.59-55.85,0-39.8-32.3-71.9-72-71.9s-71.9,32.2-71.9,71.9h59.67c.02-4.25,2.25-8.39,6.19-10.62Z"/>
    <path class="cls-4" d="m243.96,239.38c5.84-3.29,13.33-1.2,16.62,4.64l34.83,61.83c16.21-13.2,26.59-33.3,26.59-55.85,0-39.8-32.3-71.9-72-71.9s-71.9,32.2-71.9,71.9h59.67c.02-4.25,2.25-8.39,6.19-10.62Z"/>
    <path class="cls-1" d="m304.44,346.72c.73-.41,1.41-.89,2.02-1.43-1.4.83-2.81,1.63-4.25,2.4.76-.25,1.51-.57,2.23-.97Z"/>
    <path class="cls-1" d="m237.77,250.1c0,2.01.5,4.04,1.55,5.9l10.68,18.95v-24.85h-12.23Z"/>
    <path class="cls-1" d="m309.08,330.1l-13.66-24.25c-6.29,5.12-13.47,9.2-21.26,11.98l13.66,24.25c2.88,5.12,8.99,7.35,14.39,5.61,1.44-.77,2.85-1.57,4.25-2.4,4.26-3.72,5.5-10.09,2.62-15.19Z"/>
    <path class="cls-1" d="m250,250h-12.23s0,.07,0,.1h12.23v-.1Z"/>
    <path class="cls-1" d="m295.41,305.85l-34.83-61.83c-3.29-5.84-10.78-7.93-16.62-4.64-3.94,2.22-6.17,6.36-6.19,10.62h12.23v24.95l24.16,42.88c7.79-2.78,14.96-6.85,21.26-11.98Z"/>
    <path class="cls-1" d="m250,262.2h-98.8c-6.7,0-12.2-5.5-12.2-12.2s5.5-12.2,12.2-12.2h98.8c6.7,0,12.2,5.5,12.2,12.2s-5.5,12.2-12.2,12.2h0Z"/>
  </g>
</svg>