<?xml version="1.0" encoding="UTF-8"?>
<svg xmlns="http://www.w3.org/2000/svg" viewBox="0 0 1200 317.18">
  <g id="Layer_1" data-name="Layer 1">
    <g>
      <path d="M27.56,67.99l-2.61,3.91c-10.17-4.48-18.55-14.48-18.55-28.69C6.4,23.68,23.05,6.67,49.52,6.67c23,0,59.02,19.44,83.84,19.44,5.83,0,11.45-2.77,11.45-8.75,0-9.56-12.4-10.83-20.75-11.96V.18c25.44-1.94,45.33,12.04,45.33,31.97s-17.27,30.07-36.92,30.07c-.08,0-.16,0-.25,0v32.75l18.16,18.16-18.16,18.16v41.58c13.28-8.95,23.04-22.09,28.35-35.78h5.22c.03.88.05,1.76.05,2.64,0,41.54-34.72,74.56-78.85,74.56S0,179.75,0,129.45C0,96.09,23.76,60.3,64.07,53.65l2.61,3.91c-4.67,3.15-18.88,13.78-27.46,32.18l59.89-25.53-.02,82.59-47.95,20.18c10.79,10.74,25.69,17.47,43.26,17.47,11.18,0,21.31-2.65,30.2-7.11v-46.32l-17.88-17.88,17.88-17.88v-33.58c-25.83-3.11-72.94-18.42-85.71-18.42-9.44,0-17.98,4.74-17.98,14.16,0,5.19,2.97,8.84,6.64,10.58ZM32.42,120.71c0,15.14,4.94,29.38,13.66,40.55l17.92-7.64v-66.53l-28.37,11.97c-1.99,6.46-3.21,13.67-3.21,21.64Z"/>
      <path d="M251.98,189.27l-39.12,27.39-26.08-23.47-9.13,6.52-3.91-5.22,16.95-11.74v-71.72l-9.13-11.74-10.43,6.52-3.91-5.22,36.51-24.78,20.87,24.78v82.16l9.13,9.13,11.74-7.82,6.52,5.22ZM207.96,16.3l23.19,26.41-25.98,22.82-23.19-26.41,25.98-22.82Z"/>
      <path d="M352.41,219.26l-26.96-23.46,11.42-10.44v-67.05l-18.87-17.18-11.88,7.2v77.03l11.74,10.43-26.08,23.47-31.3-24.78,10.43-9.13v-72.27l-10.43-11.74-10.43,6.52-3.91-5.22,37.82-26.08,20.01,22.32,35.75-22.32,27.07,23.35,37.4-23.35,28.25,24.37,8.86-7.19,4.8,5.92-13.45,10.9v68.35l12.72,12.97,11.7-8.8.18,9.97-40.35,26.19-26.96-23.46,11.42-10.44v-67.05l-18.87-17.18-14.31,8.67v72.76l14.13,12.6-29.89,24.1Z"/>
      <path d="M461.86,191.83l12.87-10.43v-71.68l65.2-33.91,27.39,41.73v1.3l-58.68,36.52v11.74l32.6,22.17,29.99-23.47,3.91,6.52-56.08,45.64-40.36-29.98-12.04,9.76-4.8-5.92ZM535.96,128.68l-22.11-32-5.22,2.94v46.38l27.33-17.32Z"/>
      <path d="M834.88,29.39l8.58-7.12,2.23,2.62-32.36,33.8c-11.59-4.67-22.69-10.08-33.22-16.1v146.27c25.41-3.33,44.17-20.06,53.56-38.85h5.22c-2,40.74-34.57,70.11-76.67,70.11-52.04,0-92.74-46.87-92.74-98.83s34.71-89.22,74.19-102.64l2.61,3.91c-12.04,6.21-21.86,15.48-29.1,27.31l71.67-43.78c13.63,9.99,28.55,17.81,46.03,23.3ZM725.06,141.19V54.19l-14.44,8.82c-5.09,12.73-7.79,27.57-7.79,44.1,0,14.67,2.39,28.5,7.18,40.49l15.05-6.41ZM770.82,189.45c.5,0,.99,0,1.49-.01V37.95c-3.41-2.1-6.76-4.27-10.04-6.5l-2.1,1.28-.02,101.63-47.16,19.85c10.75,21.24,30.03,35.23,57.83,35.23Z"/>
      <path d="M849.64,180.81c0-14.56,11.2-28.4,31.42-39.18-12.52-5.41-22.2-13.29-22.2-25.86s8.95-18.8,16.99-23l29.99-15.65,40.15,25.89,10.98-8.91,4.8,5.92-14.2,11.51v68.61l13.04,13.04,11.73-7.82,1.29,5.23-37.87,26-20.78-20.81-28.71,20.88c-17.24-2.25-36.65-15.51-36.65-35.85ZM866.72,114.18c0,17.46,28.76,24.68,46.95,28.9v-25.53l-32.11-19.78c-8.01,4.26-14.84,9.25-14.84,16.41ZM886.01,143.59c-1.8,2.66-3.46,7.31-3.46,12.48,0,15.44,8.58,37.14,25.48,37.14,1.91,0,3.83-.29,5.65-.87v-41.17c-8.67-1.98-18.63-4.27-27.67-7.58Z"/>
      <path d="M1063.84,187.28l-40.61,29.38-29.89-23.47-9.13,6.52-3.91-5.22,16.95-11.74v-71.72l-9.13-11.74-10.43,6.52-3.91-5.22,36.51-24.78,19.94,21.44,18.97-21.53h2.81c2.6,4.06,7.24,6.72,12.28,6.72,5.62,0,9.96-3.07,12.3-6.72h8.12c-3.19,33.73-18.97,38.01-27.06,38.01-5.95,0-15.52-2.72-24.31-11.22v80.23l10.74,8.47,14.69-10.02,5.08,6.08Z"/>
      <path d="M1096.87,63.5l-5.55.95V15.65s93.83,82.55,93.83,82.55l10.05-8.15,4.8,5.92-11.64,9.44-.13,77.11-59.65,35.23-39.24-26.91v-83.63s33.14-20.38,33.14-20.38l-25.61-23.32ZM1124.44,176.56l28.84,20.05v-81.75l-28.84-26.26v87.96Z"/>
    </g>
  </g>
  <g id="Layer_2" data-name="Layer 2">
    <path d="M619.9,205.19c.05-.21.14-.66.24-1.35.1-.68.23-1.39.37-2.14.14-.74.29-1.46.45-2.15.15-.69.25-1.2.28-1.51.22-.86.82-1.47,1.81-1.84.99-.37,1.96-.65,2.93-.87.77-.17,1.47-.24,2.08-.22s1.27.26,1.98.71c.4.42,1.14,1.15,2.22,2.18,1.09,1.03,2.26,2.1,3.51,3.2,1.25,1.1,2.42,2.16,3.51,3.2,1.09,1.03,1.82,1.71,2.19,2.04.12.08.36.25.72.53.37.28.56.47.58.56.38.33,1.01.92,1.91,1.79.9.87,1.86,1.8,2.89,2.8,1.03,1,2,1.95,2.91,2.87.91.92,1.55,1.54,1.93,1.87.4.42.64.75.75.98.1.23.2.59.31,1.07.23,1.07-.05,1.89-.84,2.47-.79.58-1.91,1.02-3.36,1.34-1.26.27-2.46.25-3.59-.06-1.13-.31-2.03-.8-2.68-1.47l-12.86-12.28-.49.56c-.21.45-.38,1.05-.52,1.79-.14.74-.43,1.87-.86,3.38-.43,1.52-1.04,3.5-1.83,5.95-.79,2.45-1.92,5.67-3.39,9.64-.15.24-.61.59-1.37,1.06-.76.47-1.29.74-1.58.8-.58.13-1.36.17-2.33.12-.97-.04-1.89-.17-2.75-.39-.86-.22-1.56-.55-2.12-.99-.55-.44-.71-1.04-.47-1.8l7.46-23.84Z"/>
    <g>
      <path d="M604.91,314.85c-.98-6.9-2-13.79-3.07-20.65-1.07-6.86-2.03-13.75-2.88-20.67l-.33-2.67c-.16-1.28-.31-2.63-.46-4.07-.15-1.44-.3-2.78-.45-4.03l-.32-2.62c.13-1.03.4-1.87.83-2.52.43-.65,1.17-1.05,2.23-1.18s2.03.08,2.93.64c.89.55,1.64,1.24,2.25,2.05l16.67,24.33c.08.12.34.47.79,1.04.45.58.79.98,1,1.21.07.06.17.11.3.15.13.05.2.1.21.16l.27-.89,4.5-28.94c.45-.94.75-1.98.9-3.1.15-1.12.32-2.24.54-3.34.21-1.1.52-2.15.94-3.15.41-1,1.11-1.88,2.1-2.63l.75-.09c1.68-.21,2.99.12,3.92.99.93.87,1.64,1.98,2.12,3.35.48,1.36.81,2.81.96,4.34.16,1.53.34,2.85.54,3.97.05.44.2,1.27.45,2.51.25,1.24.54,2.69.87,4.35.33,1.67.68,3.45,1.04,5.33.36,1.89.69,3.66.99,5.34s.58,3.13.82,4.36c.25,1.24.39,2.04.44,2.41l.05.37c.13.55.37,1.47.72,2.76s.72,2.65,1.12,4.09c.4,1.44.77,2.8,1.12,4.09s.62,2.17.8,2.65c.1.31.27.76.5,1.36.23.6.5,1.25.81,1.94.31.69.59,1.34.86,1.94.26.6.47,1.02.63,1.25-.07,1.47-.29,2.62-.67,3.45-.37.84-1.34,1.35-2.89,1.54-.19.02-.47.04-.85.06-.38.02-.6.03-.66.03-.2-.1-.6-.37-1.19-.8-.59-.43-.93-.74-1.02-.92l-2.13-4.96-5.44-20.97-.1-.84c-.2-1.11-.38-2.31-.54-3.59s-.33-2.57-.53-3.88c-.19-1.31-.43-2.6-.72-3.9-.29-1.29-.69-2.48-1.2-3.55l-.4.62-3.39,27.95c.02.69.05,1.43.08,2.22.03.79-.03,1.56-.19,2.3-.16.75-.46,1.4-.9,1.96s-1.12.93-2.05,1.11c-.37.11-.78.1-1.24-.04-.46-.13-.93-.33-1.4-.59-.48-.26-.91-.57-1.3-.93-.39-.36-.64-.73-.75-1.09l-14.21-17.42-2.45-3.69.99,8.04c.47,3.8,1.01,7.52,1.61,11.15.61,3.63,1.14,7.34,1.61,11.15l.2,1.64c.1.78.18,1.61.26,2.48.08.88.16,1.71.26,2.48l.2,1.64c-.16.78-.43,1.48-.83,2.1s-1.03.98-1.91,1.09c-1.18.15-2.13.06-2.83-.27-.7-.32-1.34-.99-1.91-2Z"/>
      <path d="M674.83,309.64c.02-.32.03-.92.01-1.81-.01-.88,0-1.82.03-2.8.04-.98.06-1.91.09-2.76.02-.86.04-1.48.06-1.86-.04-2.84.01-5.68.14-8.51.13-2.83.01-5.65-.33-8.46l-.17-1.4-1.59-.56c-.27-.09-.94-.42-2.02-.98-1.08-.56-2.28-1.2-3.61-1.93-1.32-.72-2.63-1.46-3.93-2.22-1.3-.76-2.29-1.38-2.98-1.86-.4-.2-1.07-.61-2-1.22-.93-.61-1.9-1.28-2.91-2.01-1.01-.73-1.97-1.43-2.87-2.11-.91-.68-1.54-1.15-1.89-1.43-.56-.44-1.1-.96-1.62-1.56-.52-.6-.82-1.24-.9-1.93-.13-1.06.18-1.87.93-2.44.75-.57,1.6-.91,2.53-1.02.62-.08,1.29-.08,1.99,0,.7.07,1.34.33,1.9.76,2.69,2.33,5.66,4.62,8.92,6.87,3.25,2.26,6.52,4.13,9.81,5.62l.22-1.26.81-25.73c.04-.7.38-1.19,1.01-1.45s1.23-.44,1.79-.51c1.62-.2,2.9.04,3.84.71.94.68,1.52,1.92,1.74,3.72l.02.19c0,.06-.02.22-.08.48-.06.26-.12.55-.18.88-.05.32-.1.63-.12.92-.03.29-.04.46-.03.53-.09.77-.17,2.25-.21,4.44-.05,2.19-.07,4.79-.08,7.8,0,3.01-.01,6.31,0,9.92,0,3.61,0,7.23.01,10.87,0,3.64,0,7.15-.03,10.54-.03,3.39-.07,6.39-.12,8.99.14.62.27,1.33.41,2.13.13.81.12,1.6-.04,2.38-.16.78-.47,1.45-.94,2.01-.47.56-1.17.9-2.11,1.02-1.18.15-2.27-.04-3.25-.55-.98-.51-1.73-1.31-2.24-2.38Z"/>
    </g>
  </g>
</svg>